<svg xmlns="http://www.w3.org/2000/svg" width="100" height="50" viewBox="0 0 100 50" fill="none"><path d="M0 12.5C0 9.18479 1.31696 6.00537 3.66117 3.66116C6.00537 1.31696 9.18479 0 12.5 0H75C78.3152 0 81.4946 1.31696 83.8388 3.66116C86.183 6.00537 87.5 9.18479 87.5 12.5V37.5C87.5 40.8152 86.183 43.9946 83.8388 46.3388C81.4946 48.683 78.3152 50 75 50H12.5C9.18479 50 6.00537 48.683 3.66117 46.3388C1.31696 43.9946 0 40.8152 0 37.5V12.5ZM12.5 6.25C10.8424 6.25 9.25268 6.90848 8.08058 8.08058C6.90848 9.25269 6.25 10.8424 6.25 12.5V37.5C6.25 39.1576 6.90848 40.7473 8.08058 41.9194C9.25268 43.0915 10.8424 43.75 12.5 43.75H75C76.6576 43.75 78.2473 43.0915 79.4194 41.9194C80.5915 40.7473 81.25 39.1576 81.25 37.5V12.5C81.25 10.8424 80.5915 9.25269 79.4194 8.08058C78.2473 6.90848 76.6576 6.25 75 6.25H12.5ZM100 25C100 27.4864 99.0123 29.871 97.2541 31.6291C95.496 33.3873 93.1114 34.375 90.625 34.375V15.625C93.1114 15.625 95.496 16.6127 97.2541 18.3709C99.0123 20.129 100 22.5136 100 25Z" fill="#20B2AA"></path><path d="M3.33398 5H81.6673V45H3.33398V5Z" fill="#20B2AA"></path><path d="M33.1252 15.8334V33.3334H29.0752V26.1584H21.1252V33.3334H17.0752V15.8334H21.1252V22.7334H29.0752V15.8334H33.1252Z" fill="#EEEEEE"></path><path d="M48.4156 33.3334L45.0406 28.4584H44.8406H41.3156V33.3334H37.2656V15.8334H44.8406C46.3906 15.8334 47.7323 16.0918 48.8656 16.6084C50.0156 17.1251 50.899 17.8584 51.5156 18.8084C52.1323 19.7584 52.4406 20.8834 52.4406 22.1834C52.4406 23.4834 52.124 24.6084 51.4906 25.5584C50.874 26.4918 49.9906 27.2084 48.8406 27.7084L52.7656 33.3334H48.4156ZM48.3406 22.1834C48.3406 21.2001 48.024 20.4501 47.3906 19.9334C46.7573 19.4001 45.8323 19.1334 44.6156 19.1334H41.3156V25.2334H44.6156C45.8323 25.2334 46.7573 24.9668 47.3906 24.4334C48.024 23.9001 48.3406 23.1501 48.3406 22.1834Z" fill="#EEEEEE"></path><path d="M61.3994 33.6334C60.0161 33.6334 58.6744 33.4501 57.3744 33.0834C56.0911 32.7001 55.0577 32.2084 54.2744 31.6084L55.6494 28.5584C56.3994 29.1084 57.2911 29.5501 58.3244 29.8834C59.3577 30.2168 60.3911 30.3834 61.4244 30.3834C62.5744 30.3834 63.4244 30.2168 63.9744 29.8834C64.5244 29.5334 64.7994 29.0751 64.7994 28.5084C64.7994 28.0918 64.6327 27.7501 64.2994 27.4834C63.9827 27.2001 63.5661 26.9751 63.0494 26.8084C62.5494 26.6418 61.8661 26.4584 60.9994 26.2584C59.6661 25.9418 58.5744 25.6251 57.7244 25.3084C56.8744 24.9918 56.1411 24.4834 55.5244 23.7834C54.9244 23.0834 54.6244 22.1501 54.6244 20.9834C54.6244 19.9668 54.8994 19.0501 55.4494 18.2334C55.9994 17.4001 56.8244 16.7418 57.9244 16.2584C59.0411 15.7751 60.3994 15.5334 61.9994 15.5334C63.1161 15.5334 64.2077 15.6668 65.2744 15.9334C66.3411 16.2001 67.2744 16.5834 68.0744 17.0834L66.8244 20.1584C65.2077 19.2418 63.5911 18.7834 61.9744 18.7834C60.8411 18.7834 59.9994 18.9668 59.4494 19.3334C58.9161 19.7001 58.6494 20.1834 58.6494 20.7834C58.6494 21.3834 58.9577 21.8334 59.5744 22.1334C60.2077 22.4168 61.1661 22.7001 62.4494 22.9834C63.7827 23.3001 64.8744 23.6168 65.7244 23.9334C66.5744 24.2501 67.2994 24.7501 67.8994 25.4334C68.5161 26.1168 68.8244 27.0418 68.8244 28.2084C68.8244 29.2084 68.5411 30.1251 67.9744 30.9584C67.4244 31.7751 66.5911 32.4251 65.4744 32.9084C64.3577 33.3918 62.9994 33.6334 61.3994 33.6334Z" fill="#EEEEEE"></path></svg>